<svg xmlns="http://www.w3.org/2000/svg" viewBox="0 0 1024 1024" width="1024" height="1024" role="img" aria-label="Imanage">
  <!-- アプリアイコン（app/Imanage/Resources/AppIcon.icon）と同じレターマーク。
       icon.json の fill が display-p3 の黒なので、背景も黒の角丸で揃えている。
       パスは AppIcon_lettermark.svg と同一。 -->
  <rect width="1024" height="1024" rx="228" ry="228" fill="#000000"/>
  <g fill="#ffffff" transform="translate(-29.5,0)">
    <path d="M 243.6,438.1 L 243.6,456.3 C 296.8,457.1 300.6,462.4 300.6,530.0 L 300.6,740.6 C 300.6,808.2 295.2,815.8 241.3,816.6 L 241.3,834.8 L 452.6,834.8 L 452.6,816.6 C 398.6,815.8 393.3,808.2 393.3,740.6 L 393.3,575.6 C 393.3,527.0 394.8,473.8 397.8,428.2 Z M 293.0,308.1 C 293.0,338.5 317.3,362.8 347.7,362.8 C 378.1,362.8 402.4,338.5 402.4,308.1 C 402.4,277.7 378.1,253.4 347.7,253.4 C 317.3,253.4 293.0,277.7 293.0,308.1 Z"/>
    <path d="M 560,850 758,178 h 84 L 644,850 Z"/>
  </g>
</svg>
